<svg width="60" height="40" viewBox="0 0 60 40" fill="none" xmlns="http://www.w3.org/2000/svg">
<g style="mix-blend-mode:overlay" opacity="0.5">
<g style="mix-blend-mode:overlay" opacity="0.5">
<path d="M20 40C31.0457 40 40 31.0457 40 20C40 8.9543 31.0457 0 20 0C8.9543 0 0 8.9543 0 20C0 31.0457 8.9543 40 20 40Z" fill="white"/>
</g>
<g style="mix-blend-mode:overlay" opacity="0.5">
<path d="M20 39.5C30.7696 39.5 39.5 30.7696 39.5 20C39.5 9.23045 30.7696 0.5 20 0.5C9.23045 0.5 0.5 9.23045 0.5 20C0.5 30.7696 9.23045 39.5 20 39.5Z" stroke="#707070"/>
</g>
</g>
<g style="mix-blend-mode:overlay" opacity="0.7">
<g style="mix-blend-mode:overlay" opacity="0.7">
<path d="M40 40C51.0457 40 60 31.0457 60 20C60 8.9543 51.0457 0 40 0C28.9543 0 20 8.9543 20 20C20 31.0457 28.9543 40 40 40Z" fill="white"/>
</g>
<g style="mix-blend-mode:overlay" opacity="0.7">
<path d="M40 39.5C50.7696 39.5 59.5 30.7696 59.5 20C59.5 9.23045 50.7696 0.5 40 0.5C29.2304 0.5 20.5 9.23045 20.5 20C20.5 30.7696 29.2304 39.5 40 39.5Z" stroke="#707070"/>
</g>
</g>
</svg>
